<svg width="40" height="34" viewBox="0 0 40 34" fill="none" xmlns="http://www.w3.org/2000/svg">
<path d="M37.1429 0H2.85714C2.09938 0 1.37266 0.298511 0.836838 0.829864C0.301019 1.36122 0 2.08189 0 2.83333V25.5C0 26.2514 0.301019 26.9721 0.836838 27.5035C1.37266 28.0348 2.09938 28.3333 2.85714 28.3333H15.7143V31.1667H12.8571C12.4783 31.1667 12.1149 31.3159 11.847 31.5816C11.5791 31.8473 11.4286 32.2076 11.4286 32.5833C11.4286 32.9591 11.5791 33.3194 11.847 33.5851C12.1149 33.8507 12.4783 34 12.8571 34H27.1429C27.5217 34 27.8851 33.8507 28.153 33.5851C28.4209 33.3194 28.5714 32.9591 28.5714 32.5833C28.5714 32.2076 28.4209 31.8473 28.153 31.5816C27.8851 31.3159 27.5217 31.1667 27.1429 31.1667H24.2857V28.3333H37.1429C37.9006 28.3333 38.6273 28.0348 39.1632 27.5035C39.699 26.9721 40 26.2514 40 25.5V2.83333C40 2.08189 39.699 1.36122 39.1632 0.829864C38.6273 0.298511 37.9006 0 37.1429 0ZM2.85714 2.83333H37.1429V21.25H2.85714V2.83333ZM21.4286 31.1667H18.5714V28.3333H21.4286V31.1667ZM2.85714 25.5V24.0833H37.1429V25.5H2.85714Z" fill="#7700BB"/>
</svg>
