<svg width="83" height="19" viewBox="0 0 83 19" fill="none" xmlns="http://www.w3.org/2000/svg">
<path d="M18.5714 2H1.42857C1.04969 2 0.686328 2.14926 0.418419 2.41493C0.15051 2.68061 0 3.04094 0 3.41667V14.75C0 15.1257 0.15051 15.4861 0.418419 15.7517C0.686328 16.0174 1.04969 16.1667 1.42857 16.1667H7.85714V17.5833H6.42857C6.23913 17.5833 6.05745 17.658 5.9235 17.7908C5.78954 17.9236 5.71429 18.1038 5.71429 18.2917C5.71429 18.4795 5.78954 18.6597 5.9235 18.7925C6.05745 18.9254 6.23913 19 6.42857 19H13.5714C13.7609 19 13.9426 18.9254 14.0765 18.7925C14.2105 18.6597 14.2857 18.4795 14.2857 18.2917C14.2857 18.1038 14.2105 17.9236 14.0765 17.7908C13.9426 17.658 13.7609 17.5833 13.5714 17.5833H12.1429V16.1667H18.5714C18.9503 16.1667 19.3137 16.0174 19.5816 15.7517C19.8495 15.4861 20 15.1257 20 14.75V3.41667C20 3.04094 19.8495 2.68061 19.5816 2.41493C19.3137 2.14926 18.9503 2 18.5714 2V2ZM1.42857 3.41667H18.5714V12.625H1.42857V3.41667ZM10.7143 17.5833H9.28571V16.1667H10.7143V17.5833ZM1.42857 14.75V14.0417H18.5714V14.75H1.42857Z" fill="#7700BB"/>
<path d="M28.3184 8.92285H26.5137V15H24.4287V8.92285H23.2803V7.91797L24.4287 7.35742V6.79688C24.4287 6.14518 24.5381 5.63932 24.7568 5.2793C24.9801 4.91471 25.2923 4.65951 25.6934 4.51367C26.099 4.36328 26.5775 4.28809 27.1289 4.28809C27.5345 4.28809 27.9036 4.32227 28.2363 4.39062C28.569 4.45443 28.8402 4.52734 29.0498 4.60938L28.5166 6.14062C28.3571 6.09049 28.1839 6.04492 27.9971 6.00391C27.8102 5.96289 27.596 5.94238 27.3545 5.94238C27.0628 5.94238 26.8486 6.03125 26.7119 6.20898C26.5798 6.38216 26.5137 6.60547 26.5137 6.87891V7.35742H28.3184V8.92285ZM31.5996 7.35742V15H29.5146V7.35742H31.5996ZM30.5605 4.36328C30.8704 4.36328 31.137 4.4362 31.3604 4.58203C31.5837 4.72331 31.6953 4.98991 31.6953 5.38184C31.6953 5.76921 31.5837 6.03809 31.3604 6.18848C31.137 6.33431 30.8704 6.40723 30.5605 6.40723C30.2461 6.40723 29.9772 6.33431 29.7539 6.18848C29.5352 6.03809 29.4258 5.76921 29.4258 5.38184C29.4258 4.98991 29.5352 4.72331 29.7539 4.58203C29.9772 4.4362 30.2461 4.36328 30.5605 4.36328ZM35.8721 15H33.7871V4.36328H35.8721V15ZM47.042 7.21387C47.9079 7.21387 48.5618 7.43717 49.0039 7.88379C49.4505 8.32585 49.6738 9.03678 49.6738 10.0166V15H47.582V10.5361C47.582 9.98926 47.4886 9.57682 47.3018 9.29883C47.1149 9.02083 46.8255 8.88184 46.4336 8.88184C45.8822 8.88184 45.4902 9.08008 45.2578 9.47656C45.0254 9.86849 44.9092 10.4313 44.9092 11.165V15H42.8242V10.5361C42.8242 10.1715 42.7832 9.86621 42.7012 9.62012C42.6191 9.37402 42.4938 9.18945 42.3252 9.06641C42.1566 8.94336 41.9401 8.88184 41.6758 8.88184C41.2884 8.88184 40.9831 8.97982 40.7598 9.17578C40.541 9.36719 40.3838 9.65202 40.2881 10.0303C40.1969 10.404 40.1514 10.862 40.1514 11.4043V15H38.0664V7.35742H39.6592L39.9395 8.33496H40.0557C40.2106 8.07064 40.4043 7.85645 40.6367 7.69238C40.8737 7.52832 41.1335 7.40755 41.416 7.33008C41.6986 7.2526 41.9857 7.21387 42.2773 7.21387C42.8379 7.21387 43.3118 7.30501 43.6992 7.4873C44.0911 7.6696 44.3919 7.95215 44.6016 8.33496H44.7861C45.014 7.94303 45.3353 7.6582 45.75 7.48047C46.1693 7.30273 46.5999 7.21387 47.042 7.21387ZM53.9053 7.35742V15H51.8203V7.35742H53.9053ZM52.8662 4.36328C53.1761 4.36328 53.4427 4.4362 53.666 4.58203C53.8893 4.72331 54.001 4.98991 54.001 5.38184C54.001 5.76921 53.8893 6.03809 53.666 6.18848C53.4427 6.33431 53.1761 6.40723 52.8662 6.40723C52.5518 6.40723 52.2829 6.33431 52.0596 6.18848C51.8408 6.03809 51.7314 5.76921 51.7314 5.38184C51.7314 4.98991 51.8408 4.72331 52.0596 4.58203C52.2829 4.4362 52.5518 4.36328 52.8662 4.36328ZM61.4316 12.7305C61.4316 13.25 61.3086 13.6898 61.0625 14.0498C60.821 14.4053 60.4587 14.6764 59.9756 14.8633C59.4925 15.0456 58.891 15.1367 58.1709 15.1367C57.6377 15.1367 57.1797 15.1025 56.7969 15.0342C56.4186 14.9658 56.0358 14.8519 55.6484 14.6924V12.9697C56.0632 13.1566 56.5075 13.3115 56.9814 13.4346C57.46 13.5531 57.8792 13.6123 58.2393 13.6123C58.6449 13.6123 58.9342 13.5531 59.1074 13.4346C59.2852 13.3115 59.374 13.152 59.374 12.9561C59.374 12.8285 59.3376 12.7145 59.2646 12.6143C59.1963 12.5094 59.0459 12.3932 58.8135 12.2656C58.5811 12.1335 58.2165 11.9626 57.7197 11.7529C57.2412 11.5524 56.847 11.3496 56.5371 11.1445C56.2318 10.9395 56.0039 10.6979 55.8535 10.4199C55.7077 10.1374 55.6348 9.77962 55.6348 9.34668C55.6348 8.6403 55.9082 8.10938 56.4551 7.75391C57.0065 7.39388 57.7425 7.21387 58.6631 7.21387C59.137 7.21387 59.5882 7.26172 60.0166 7.35742C60.4495 7.45312 60.8939 7.60579 61.3496 7.81543L60.7207 9.31934C60.3424 9.15527 59.9847 9.02083 59.6475 8.91602C59.3148 8.8112 58.9753 8.75879 58.6289 8.75879C58.3236 8.75879 58.0934 8.7998 57.9385 8.88184C57.7835 8.96387 57.7061 9.08919 57.7061 9.25781C57.7061 9.38086 57.7448 9.49023 57.8223 9.58594C57.9043 9.68164 58.0592 9.78874 58.2871 9.90723C58.5195 10.0212 58.859 10.1693 59.3057 10.3516C59.7386 10.5293 60.1146 10.7161 60.4336 10.9121C60.7526 11.1035 60.9987 11.3428 61.1719 11.6299C61.3451 11.9124 61.4316 12.2793 61.4316 12.7305ZM66.2783 13.4756C66.5062 13.4756 66.7272 13.4528 66.9414 13.4072C67.1602 13.3617 67.3766 13.3047 67.5908 13.2363V14.7881C67.3675 14.8883 67.0895 14.9704 66.7568 15.0342C66.4287 15.1025 66.0687 15.1367 65.6768 15.1367C65.221 15.1367 64.8109 15.0638 64.4463 14.918C64.0863 14.7676 63.8014 14.5101 63.5918 14.1455C63.3867 13.7764 63.2842 13.2637 63.2842 12.6074V8.92285H62.2861V8.04102L63.4346 7.34375L64.0361 5.73047H65.3691V7.35742H67.5088V8.92285H65.3691V12.6074C65.3691 12.8991 65.4512 13.1178 65.6152 13.2637C65.7839 13.4049 66.0049 13.4756 66.2783 13.4756ZM72.2939 7.21387C73.0003 7.21387 73.6087 7.35059 74.1191 7.62402C74.6296 7.8929 75.0238 8.28483 75.3018 8.7998C75.5798 9.31478 75.7188 9.94368 75.7188 10.6865V11.6982H70.79C70.8128 12.2861 70.9883 12.7487 71.3164 13.0859C71.6491 13.4186 72.1094 13.585 72.6973 13.585C73.1849 13.585 73.6315 13.5348 74.0371 13.4346C74.4427 13.3343 74.8597 13.1839 75.2881 12.9834V14.5967C74.9098 14.7835 74.5133 14.9202 74.0986 15.0068C73.6885 15.0934 73.1895 15.1367 72.6016 15.1367C71.8359 15.1367 71.1569 14.9954 70.5645 14.7129C69.9766 14.4303 69.514 13.9997 69.1768 13.4209C68.8441 12.8421 68.6777 12.113 68.6777 11.2334C68.6777 10.3402 68.8281 9.59733 69.1289 9.00488C69.4342 8.40788 69.8581 7.96126 70.4004 7.66504C70.9427 7.36426 71.5739 7.21387 72.2939 7.21387ZM72.3076 8.69727C71.902 8.69727 71.5648 8.82715 71.2959 9.08691C71.0316 9.34668 70.8789 9.75456 70.8379 10.3105H73.7637C73.7591 10.0007 73.7021 9.72493 73.5928 9.4834C73.488 9.24186 73.3285 9.05046 73.1143 8.90918C72.9046 8.7679 72.6357 8.69727 72.3076 8.69727ZM81.6797 7.21387C81.7845 7.21387 81.9053 7.2207 82.042 7.23438C82.1833 7.24349 82.2972 7.25716 82.3838 7.27539L82.2266 9.23047C82.1582 9.20768 82.0602 9.19173 81.9326 9.18262C81.8096 9.16895 81.7025 9.16211 81.6113 9.16211C81.3424 9.16211 81.0804 9.19629 80.8252 9.26465C80.5745 9.33301 80.349 9.44466 80.1484 9.59961C79.9479 9.75 79.7884 9.95052 79.6699 10.2012C79.556 10.4473 79.499 10.7503 79.499 11.1104V15H77.4141V7.35742H78.9932L79.3008 8.64258H79.4033C79.5537 8.38281 79.7406 8.14583 79.9639 7.93164C80.1917 7.71289 80.4492 7.53971 80.7363 7.41211C81.028 7.27995 81.3424 7.21387 81.6797 7.21387Z" fill="#A68CB6"/>
</svg>
