<svg width="134" height="33" viewBox="0 0 134 33" fill="none" xmlns="http://www.w3.org/2000/svg">
<path d="M26 6H2C1.46957 6 0.960859 6.21071 0.585786 6.58579C0.210714 6.96086 0 7.46957 0 8V24C0 24.5304 0.210714 25.0391 0.585786 25.4142C0.960859 25.7893 1.46957 26 2 26H11V28H9C8.73478 28 8.48043 28.1054 8.29289 28.2929C8.10536 28.4804 8 28.7348 8 29C8 29.2652 8.10536 29.5196 8.29289 29.7071C8.48043 29.8946 8.73478 30 9 30H19C19.2652 30 19.5196 29.8946 19.7071 29.7071C19.8946 29.5196 20 29.2652 20 29C20 28.7348 19.8946 28.4804 19.7071 28.2929C19.5196 28.1054 19.2652 28 19 28H17V26H26C26.5304 26 27.0391 25.7893 27.4142 25.4142C27.7893 25.0391 28 24.5304 28 24V8C28 7.46957 27.7893 6.96086 27.4142 6.58579C27.0391 6.21071 26.5304 6 26 6ZM2 8H26V21H2V8ZM15 28H13V26H15V28ZM2 24V23H26V24H2Z" fill="#7700BB"/>
<path d="M40.1172 15.582H37.0234V26H33.4492V15.582H31.4805V13.8594L33.4492 12.8984V11.9375C33.4492 10.8203 33.6367 9.95312 34.0117 9.33594C34.3945 8.71094 34.9297 8.27344 35.6172 8.02344C36.3125 7.76562 37.1328 7.63672 38.0781 7.63672C38.7734 7.63672 39.4062 7.69531 39.9766 7.8125C40.5469 7.92187 41.0117 8.04688 41.3711 8.1875L40.457 10.8125C40.1836 10.7266 39.8867 10.6484 39.5664 10.5781C39.2461 10.5078 38.8789 10.4727 38.4648 10.4727C37.9648 10.4727 37.5977 10.625 37.3633 10.9297C37.1367 11.2266 37.0234 11.6094 37.0234 12.0781V12.8984H40.1172V15.582ZM45.7422 12.8984V26H42.168V12.8984H45.7422ZM43.9609 7.76562C44.4922 7.76562 44.9492 7.89063 45.332 8.14062C45.7148 8.38281 45.9062 8.83984 45.9062 9.51172C45.9062 10.1758 45.7148 10.6367 45.332 10.8945C44.9492 11.1445 44.4922 11.2695 43.9609 11.2695C43.4219 11.2695 42.9609 11.1445 42.5781 10.8945C42.2031 10.6367 42.0156 10.1758 42.0156 9.51172C42.0156 8.83984 42.2031 8.38281 42.5781 8.14062C42.9609 7.89063 43.4219 7.76562 43.9609 7.76562ZM53.0664 26H49.4922V7.76562H53.0664V26ZM72.2148 12.6523C73.6992 12.6523 74.8203 13.0352 75.5781 13.8008C76.3438 14.5586 76.7266 15.7773 76.7266 17.457V26H73.1406V18.3477C73.1406 17.4102 72.9805 16.7031 72.6602 16.2266C72.3398 15.75 71.8438 15.5117 71.1719 15.5117C70.2266 15.5117 69.5547 15.8516 69.1562 16.5312C68.7578 17.2031 68.5586 18.168 68.5586 19.4258V26H64.9844V18.3477C64.9844 17.7227 64.9141 17.1992 64.7734 16.7773C64.6328 16.3555 64.418 16.0391 64.1289 15.8281C63.8398 15.6172 63.4688 15.5117 63.0156 15.5117C62.3516 15.5117 61.8281 15.6797 61.4453 16.0156C61.0703 16.3438 60.8008 16.832 60.6367 17.4805C60.4805 18.1211 60.4023 18.9062 60.4023 19.8359V26H56.8281V12.8984H59.5586L60.0391 14.5742H60.2383C60.5039 14.1211 60.8359 13.7539 61.2344 13.4727C61.6406 13.1914 62.0859 12.9844 62.5703 12.8516C63.0547 12.7188 63.5469 12.6523 64.0469 12.6523C65.0078 12.6523 65.8203 12.8086 66.4844 13.1211C67.1562 13.4336 67.6719 13.918 68.0312 14.5742H68.3477C68.7383 13.9023 69.2891 13.4141 70 13.1094C70.7188 12.8047 71.457 12.6523 72.2148 12.6523ZM83.9805 12.8984V26H80.4062V12.8984H83.9805ZM82.1992 7.76562C82.7305 7.76562 83.1875 7.89063 83.5703 8.14062C83.9531 8.38281 84.1445 8.83984 84.1445 9.51172C84.1445 10.1758 83.9531 10.6367 83.5703 10.8945C83.1875 11.1445 82.7305 11.2695 82.1992 11.2695C81.6602 11.2695 81.1992 11.1445 80.8164 10.8945C80.4414 10.6367 80.2539 10.1758 80.2539 9.51172C80.2539 8.83984 80.4414 8.38281 80.8164 8.14062C81.1992 7.89063 81.6602 7.76562 82.1992 7.76562ZM96.8828 22.1094C96.8828 23 96.6719 23.7539 96.25 24.3711C95.8359 24.9805 95.2148 25.4453 94.3867 25.7656C93.5586 26.0781 92.5273 26.2344 91.293 26.2344C90.3789 26.2344 89.5938 26.1758 88.9375 26.0586C88.2891 25.9414 87.6328 25.7461 86.9688 25.4727V22.5195C87.6797 22.8398 88.4414 23.1055 89.2539 23.3164C90.0742 23.5195 90.793 23.6211 91.4102 23.6211C92.1055 23.6211 92.6016 23.5195 92.8984 23.3164C93.2031 23.1055 93.3555 22.832 93.3555 22.4961C93.3555 22.2773 93.293 22.082 93.168 21.9102C93.0508 21.7305 92.793 21.5312 92.3945 21.3125C91.9961 21.0859 91.3711 20.793 90.5195 20.4336C89.6992 20.0898 89.0234 19.7422 88.4922 19.3906C87.9688 19.0391 87.5781 18.625 87.3203 18.1484C87.0703 17.6641 86.9453 17.0508 86.9453 16.3086C86.9453 15.0977 87.4141 14.1875 88.3516 13.5781C89.2969 12.9609 90.5586 12.6523 92.1367 12.6523C92.9492 12.6523 93.7227 12.7344 94.457 12.8984C95.1992 13.0625 95.9609 13.3242 96.7422 13.6836L95.6641 16.2617C95.0156 15.9805 94.4023 15.75 93.8242 15.5703C93.2539 15.3906 92.6719 15.3008 92.0781 15.3008C91.5547 15.3008 91.1602 15.3711 90.8945 15.5117C90.6289 15.6523 90.4961 15.8672 90.4961 16.1562C90.4961 16.3672 90.5625 16.5547 90.6953 16.7188C90.8359 16.8828 91.1016 17.0664 91.4922 17.2695C91.8906 17.4648 92.4727 17.7188 93.2383 18.0312C93.9805 18.3359 94.625 18.6562 95.1719 18.9922C95.7188 19.3203 96.1406 19.7305 96.4375 20.2227C96.7344 20.707 96.8828 21.3359 96.8828 22.1094ZM105.191 23.3867C105.582 23.3867 105.961 23.3477 106.328 23.2695C106.703 23.1914 107.074 23.0938 107.441 22.9766V25.6367C107.059 25.8086 106.582 25.9492 106.012 26.0586C105.449 26.1758 104.832 26.2344 104.16 26.2344C103.379 26.2344 102.676 26.1094 102.051 25.8594C101.434 25.6016 100.945 25.1602 100.586 24.5352C100.234 23.9023 100.059 23.0234 100.059 21.8984V15.582H98.3477V14.0703L100.316 12.875L101.348 10.1094H103.633V12.8984H107.301V15.582H103.633V21.8984C103.633 22.3984 103.773 22.7734 104.055 23.0234C104.344 23.2656 104.723 23.3867 105.191 23.3867ZM115.504 12.6523C116.715 12.6523 117.758 12.8867 118.633 13.3555C119.508 13.8164 120.184 14.4883 120.66 15.3711C121.137 16.2539 121.375 17.332 121.375 18.6055V20.3398H112.926C112.965 21.3477 113.266 22.1406 113.828 22.7188C114.398 23.2891 115.188 23.5742 116.195 23.5742C117.031 23.5742 117.797 23.4883 118.492 23.3164C119.188 23.1445 119.902 22.8867 120.637 22.543V25.3086C119.988 25.6289 119.309 25.8633 118.598 26.0117C117.895 26.1602 117.039 26.2344 116.031 26.2344C114.719 26.2344 113.555 25.9922 112.539 25.5078C111.531 25.0234 110.738 24.2852 110.16 23.293C109.59 22.3008 109.305 21.0508 109.305 19.543C109.305 18.0117 109.562 16.7383 110.078 15.7227C110.602 14.6992 111.328 13.9336 112.258 13.4258C113.188 12.9102 114.27 12.6523 115.504 12.6523ZM115.527 15.1953C114.832 15.1953 114.254 15.418 113.793 15.8633C113.34 16.3086 113.078 17.0078 113.008 17.9609H118.023C118.016 17.4297 117.918 16.957 117.73 16.543C117.551 16.1289 117.277 15.8008 116.91 15.5586C116.551 15.3164 116.09 15.1953 115.527 15.1953ZM131.594 12.6523C131.773 12.6523 131.98 12.6641 132.215 12.6875C132.457 12.7031 132.652 12.7266 132.801 12.7578L132.531 16.1094C132.414 16.0703 132.246 16.043 132.027 16.0273C131.816 16.0039 131.633 15.9922 131.477 15.9922C131.016 15.9922 130.566 16.0508 130.129 16.168C129.699 16.2852 129.312 16.4766 128.969 16.7422C128.625 17 128.352 17.3438 128.148 17.7734C127.953 18.1953 127.855 18.7148 127.855 19.332V26H124.281V12.8984H126.988L127.516 15.1016H127.691C127.949 14.6562 128.27 14.25 128.652 13.8828C129.043 13.5078 129.484 13.2109 129.977 12.9922C130.477 12.7656 131.016 12.6523 131.594 12.6523Z" fill="#A68CB6"/>
</svg>
