<svg width="200" height="49" viewBox="0 0 200 49" fill="none" xmlns="http://www.w3.org/2000/svg">
<path d="M37.1429 9H2.85714C2.09938 9 1.37266 9.29851 0.836838 9.82986C0.301019 10.3612 0 11.0819 0 11.8333V34.5C0 35.2514 0.301019 35.9721 0.836838 36.5035C1.37266 37.0348 2.09938 37.3333 2.85714 37.3333H15.7143V40.1667H12.8571C12.4783 40.1667 12.1149 40.3159 11.847 40.5816C11.5791 40.8473 11.4286 41.2076 11.4286 41.5833C11.4286 41.9591 11.5791 42.3194 11.847 42.5851C12.1149 42.8507 12.4783 43 12.8571 43H27.1429C27.5217 43 27.8851 42.8507 28.153 42.5851C28.4209 42.3194 28.5714 41.9591 28.5714 41.5833C28.5714 41.2076 28.4209 40.8473 28.153 40.5816C27.8851 40.3159 27.5217 40.1667 27.1429 40.1667H24.2857V37.3333H37.1429C37.9006 37.3333 38.6273 37.0348 39.1632 36.5035C39.699 35.9721 40 35.2514 40 34.5V11.8333C40 11.0819 39.699 10.3612 39.1632 9.82986C38.6273 9.29851 37.9006 9 37.1429 9ZM2.85714 11.8333H37.1429V30.25H2.85714V11.8333ZM21.4286 40.1667H18.5714V37.3333H21.4286V40.1667ZM2.85714 34.5V33.0833H37.1429V34.5H2.85714Z" fill="#7700BB"/>
<path d="M59.6758 22.373H55.0352V38H49.6738V22.373H46.7207V19.7891L49.6738 18.3477V16.9062C49.6738 15.2305 49.9551 13.9297 50.5176 13.0039C51.0918 12.0664 51.8945 11.4102 52.9258 11.0352C53.9688 10.6484 55.1992 10.4551 56.6172 10.4551C57.6602 10.4551 58.6094 10.543 59.4648 10.7188C60.3203 10.8828 61.0176 11.0703 61.5566 11.2812L60.1855 15.2188C59.7754 15.0898 59.3301 14.9727 58.8496 14.8672C58.3691 14.7617 57.8184 14.709 57.1973 14.709C56.4473 14.709 55.8965 14.9375 55.5449 15.3945C55.2051 15.8398 55.0352 16.4141 55.0352 17.1172V18.3477H59.6758V22.373ZM68.1133 18.3477V38H62.752V18.3477H68.1133ZM65.4414 10.6484C66.2383 10.6484 66.9238 10.8359 67.498 11.2109C68.0723 11.5742 68.3594 12.2598 68.3594 13.2676C68.3594 14.2637 68.0723 14.9551 67.498 15.3418C66.9238 15.7168 66.2383 15.9043 65.4414 15.9043C64.6328 15.9043 63.9414 15.7168 63.3672 15.3418C62.8047 14.9551 62.5234 14.2637 62.5234 13.2676C62.5234 12.2598 62.8047 11.5742 63.3672 11.2109C63.9414 10.8359 64.6328 10.6484 65.4414 10.6484ZM79.0996 38H73.7383V10.6484H79.0996V38ZM107.822 17.9785C110.049 17.9785 111.73 18.5527 112.867 19.7012C114.016 20.8379 114.59 22.666 114.59 25.1855V38H109.211V26.5215C109.211 25.1152 108.971 24.0547 108.49 23.3398C108.01 22.625 107.266 22.2676 106.258 22.2676C104.84 22.2676 103.832 22.7773 103.234 23.7969C102.637 24.8047 102.338 26.252 102.338 28.1387V38H96.9766V26.5215C96.9766 25.584 96.8711 24.7988 96.6602 24.166C96.4492 23.5332 96.127 23.0586 95.6934 22.7422C95.2598 22.4258 94.7031 22.2676 94.0234 22.2676C93.0273 22.2676 92.2422 22.5195 91.668 23.0234C91.1055 23.5156 90.7012 24.248 90.4551 25.2207C90.2207 26.1816 90.1035 27.3594 90.1035 28.7539V38H84.7422V18.3477H88.8379L89.5586 20.8613H89.8574C90.2559 20.1816 90.7539 19.6309 91.3516 19.209C91.9609 18.7871 92.6289 18.4766 93.3555 18.2773C94.082 18.0781 94.8203 17.9785 95.5703 17.9785C97.0117 17.9785 98.2305 18.2129 99.2266 18.6816C100.234 19.1504 101.008 19.877 101.547 20.8613H102.021C102.607 19.8535 103.434 19.1211 104.5 18.6641C105.578 18.207 106.686 17.9785 107.822 17.9785ZM125.471 18.3477V38H120.109V18.3477H125.471ZM122.799 10.6484C123.596 10.6484 124.281 10.8359 124.855 11.2109C125.43 11.5742 125.717 12.2598 125.717 13.2676C125.717 14.2637 125.43 14.9551 124.855 15.3418C124.281 15.7168 123.596 15.9043 122.799 15.9043C121.99 15.9043 121.299 15.7168 120.725 15.3418C120.162 14.9551 119.881 14.2637 119.881 13.2676C119.881 12.2598 120.162 11.5742 120.725 11.2109C121.299 10.8359 121.99 10.6484 122.799 10.6484ZM144.824 32.1641C144.824 33.5 144.508 34.6309 143.875 35.5566C143.254 36.4707 142.322 37.168 141.08 37.6484C139.838 38.1172 138.291 38.3516 136.439 38.3516C135.068 38.3516 133.891 38.2637 132.906 38.0879C131.934 37.9121 130.949 37.6191 129.953 37.209V32.7793C131.02 33.2598 132.162 33.6582 133.381 33.9746C134.611 34.2793 135.689 34.4316 136.615 34.4316C137.658 34.4316 138.402 34.2793 138.848 33.9746C139.305 33.6582 139.533 33.248 139.533 32.7441C139.533 32.416 139.439 32.123 139.252 31.8652C139.076 31.5957 138.689 31.2969 138.092 30.9688C137.494 30.6289 136.557 30.1895 135.279 29.6504C134.049 29.1348 133.035 28.6133 132.238 28.0859C131.453 27.5586 130.867 26.9375 130.48 26.2227C130.105 25.4961 129.918 24.5762 129.918 23.4629C129.918 21.6465 130.621 20.2812 132.027 19.3672C133.445 18.4414 135.338 17.9785 137.705 17.9785C138.924 17.9785 140.084 18.1016 141.186 18.3477C142.299 18.5938 143.441 18.9863 144.613 19.5254L142.996 23.3926C142.023 22.9707 141.104 22.625 140.236 22.3555C139.381 22.0859 138.508 21.9512 137.617 21.9512C136.832 21.9512 136.24 22.0566 135.842 22.2676C135.443 22.4785 135.244 22.8008 135.244 23.2344C135.244 23.5508 135.344 23.832 135.543 24.0781C135.754 24.3242 136.152 24.5996 136.738 24.9043C137.336 25.1973 138.209 25.5781 139.357 26.0469C140.471 26.5039 141.438 26.9844 142.258 27.4883C143.078 27.9805 143.711 28.5957 144.156 29.334C144.602 30.0605 144.824 31.0039 144.824 32.1641ZM157.287 34.0801C157.873 34.0801 158.441 34.0215 158.992 33.9043C159.555 33.7871 160.111 33.6406 160.662 33.4648V37.4551C160.088 37.7129 159.373 37.9238 158.518 38.0879C157.674 38.2637 156.748 38.3516 155.74 38.3516C154.568 38.3516 153.514 38.1641 152.576 37.7891C151.65 37.4023 150.918 36.7402 150.379 35.8027C149.852 34.8535 149.588 33.5352 149.588 31.8477V22.373H147.021V20.1055L149.975 18.3125L151.521 14.1641H154.949V18.3477H160.451V22.373H154.949V31.8477C154.949 32.5977 155.16 33.1602 155.582 33.5352C156.016 33.8984 156.584 34.0801 157.287 34.0801ZM172.756 17.9785C174.572 17.9785 176.137 18.3301 177.449 19.0332C178.762 19.7246 179.775 20.7324 180.49 22.0566C181.205 23.3809 181.562 24.998 181.562 26.9082V29.5098H168.889C168.947 31.0215 169.398 32.2109 170.242 33.0781C171.098 33.9336 172.281 34.3613 173.793 34.3613C175.047 34.3613 176.195 34.2324 177.238 33.9746C178.281 33.7168 179.354 33.3301 180.455 32.8145V36.9629C179.482 37.4434 178.463 37.7949 177.396 38.0176C176.342 38.2402 175.059 38.3516 173.547 38.3516C171.578 38.3516 169.832 37.9883 168.309 37.2617C166.797 36.5352 165.607 35.4277 164.74 33.9395C163.885 32.4512 163.457 30.5762 163.457 28.3145C163.457 26.0176 163.844 24.1074 164.617 22.584C165.402 21.0488 166.492 19.9004 167.887 19.1387C169.281 18.3652 170.904 17.9785 172.756 17.9785ZM172.791 21.793C171.748 21.793 170.881 22.127 170.189 22.7949C169.51 23.4629 169.117 24.5117 169.012 25.9414H176.535C176.523 25.1445 176.377 24.4355 176.096 23.8145C175.826 23.1934 175.416 22.7012 174.865 22.3379C174.326 21.9746 173.635 21.793 172.791 21.793ZM196.891 17.9785C197.16 17.9785 197.471 17.9961 197.822 18.0312C198.186 18.0547 198.479 18.0898 198.701 18.1367L198.297 23.1641C198.121 23.1055 197.869 23.0645 197.541 23.041C197.225 23.0059 196.949 22.9883 196.715 22.9883C196.023 22.9883 195.35 23.0762 194.693 23.252C194.049 23.4277 193.469 23.7148 192.953 24.1133C192.438 24.5 192.027 25.0156 191.723 25.6602C191.43 26.293 191.283 27.0723 191.283 27.998V38H185.922V18.3477H189.982L190.773 21.6523H191.037C191.424 20.9844 191.904 20.375 192.479 19.8242C193.064 19.2617 193.727 18.8164 194.465 18.4883C195.215 18.1484 196.023 17.9785 196.891 17.9785Z" fill="#A68CB6"/>
</svg>
